# xmcd
#
# Track frame offsets: 
#        150
#        13110
#        28545
#        42235
#        55697
#        72545
#        84957
#        96365
#        108305
#        118772
#
# Disc length: 1749 seconds
#
# Revision: 2
# Processed by: cddbd v1.5.2PL0 Copyright (c) Steve Scherf et al.
# Submitted via: ExactAudioCopy v0.99pb4
#
DISCID=7e06d30a
DTITLE=Various Artist - Good Old Country - Men Of Country Disc 1
DYEAR=2000
DGENRE=Country
TTITLE0=Charlie Rich/The Most Beautiful Girl
TTITLE1=Frankie Laine/Green Green Grass Of Home
TTITLE2=Lee Greenwood/Hearts Aren't Made to Break (They're Made To Lov
TTITLE2=e)
TTITLE3=Ace Cannon/Almost Persuaded
TTITLE4=Ferlin Husky/For The Good Times
TTITLE5=Freddy Fender/Wasted Days and Wasted Nights
TTITLE6=Don Gibson/Sea Of Heartbreak
TTITLE7=David Houston/Already It's Heaven
TTITLE8=Willie Nelson/Blame It On The Times
TTITLE9=Johnny Paycheck/Take This Job And Shove It
EXTD=YEAR: 2000
EXTT0=
EXTT1=
EXTT2=
EXTT3=
EXTT4=
EXTT5=
EXTT6=
EXTT7=
EXTT8=
EXTT9=
PLAYORDER=
